<svg id="visual" viewBox="0 0 900 600" width="900" height="600" xmlns="http://www.w3.org/2000/svg" xmlns:xlink="http://www.w3.org/1999/xlink" version="1.1"><path d="M0 73L13.7 70C27.3 67 54.7 61 82 58C109.3 55 136.7 55 163.8 64C191 73 218 91 245.2 102C272.3 113 299.7 117 327 117C354.3 117 381.7 113 409 107C436.3 101 463.7 93 491 94C518.3 95 545.7 105 573 109C600.3 113 627.7 111 654.8 102C682 93 709 77 736.2 68C763.3 59 790.7 57 818 64C845.3 71 872.7 87 886.3 95L900 103L900 0L886.3 0C872.7 0 845.3 0 818 0C790.7 0 763.3 0 736.2 0C709 0 682 0 654.8 0C627.7 0 600.3 0 573 0C545.7 0 518.3 0 491 0C463.7 0 436.3 0 409 0C381.7 0 354.3 0 327 0C299.7 0 272.3 0 245.2 0C218 0 191 0 163.8 0C136.7 0 109.3 0 82 0C54.7 0 27.3 0 13.7 0L0 0Z" fill="#ffffff"></path><path d="M0 157L13.7 150C27.3 143 54.7 129 82 129C109.3 129 136.7 143 163.8 149C191 155 218 153 245.2 153C272.3 153 299.7 155 327 161C354.3 167 381.7 177 409 177C436.3 177 463.7 167 491 170C518.3 173 545.7 189 573 191C600.3 193 627.7 181 654.8 163C682 145 709 121 736.2 118C763.3 115 790.7 133 818 144C845.3 155 872.7 159 886.3 161L900 163L900 101L886.3 93C872.7 85 845.3 69 818 62C790.7 55 763.3 57 736.2 66C709 75 682 91 654.8 100C627.7 109 600.3 111 573 107C545.7 103 518.3 93 491 92C463.7 91 436.3 99 409 105C381.7 111 354.3 115 327 115C299.7 115 272.3 111 245.2 100C218 89 191 71 163.8 62C136.7 53 109.3 53 82 56C54.7 59 27.3 65 13.7 68L0 71Z" fill="#dfdfdf"></path><path d="M0 433L13.7 429C27.3 425 54.7 417 82 415C109.3 413 136.7 417 163.8 406C191 395 218 369 245.2 364C272.3 359 299.7 375 327 366C354.3 357 381.7 323 409 315C436.3 307 463.7 325 491 341C518.3 357 545.7 371 573 376C600.3 381 627.7 377 654.8 363C682 349 709 325 736.2 315C763.3 305 790.7 309 818 326C845.3 343 872.7 373 886.3 388L900 403L900 161L886.3 159C872.7 157 845.3 153 818 142C790.7 131 763.3 113 736.2 116C709 119 682 143 654.8 161C627.7 179 600.3 191 573 189C545.7 187 518.3 171 491 168C463.7 165 436.3 175 409 175C381.7 175 354.3 165 327 159C299.7 153 272.3 151 245.2 151C218 151 191 153 163.8 147C136.7 141 109.3 127 82 127C54.7 127 27.3 141 13.7 148L0 155Z" fill="#cccccc"></path><path d="M0 553L13.7 548C27.3 543 54.7 533 82 532C109.3 531 136.7 539 163.8 536C191 533 218 519 245.2 517C272.3 515 299.7 525 327 525C354.3 525 381.7 515 409 513C436.3 511 463.7 517 491 526C518.3 535 545.7 547 573 553C600.3 559 627.7 559 654.8 551C682 543 709 527 736.2 519C763.3 511 790.7 511 818 517C845.3 523 872.7 535 886.3 541L900 547L900 401L886.3 386C872.7 371 845.3 341 818 324C790.7 307 763.3 303 736.2 313C709 323 682 347 654.8 361C627.7 375 600.3 379 573 374C545.7 369 518.3 355 491 339C463.7 323 436.3 305 409 313C381.7 321 354.3 355 327 364C299.7 373 272.3 357 245.2 362C218 367 191 393 163.8 404C136.7 415 109.3 411 82 413C54.7 415 27.3 423 13.7 427L0 431Z" fill="#dfdfdf"></path><path d="M0 601L13.7 601C27.3 601 54.7 601 82 601C109.3 601 136.7 601 163.8 601C191 601 218 601 245.2 601C272.3 601 299.7 601 327 601C354.3 601 381.7 601 409 601C436.3 601 463.7 601 491 601C518.3 601 545.7 601 573 601C600.3 601 627.7 601 654.8 601C682 601 709 601 736.2 601C763.3 601 790.7 601 818 601C845.3 601 872.7 601 886.3 601L900 601L900 545L886.3 539C872.7 533 845.3 521 818 515C790.7 509 763.3 509 736.2 517C709 525 682 541 654.8 549C627.7 557 600.3 557 573 551C545.7 545 518.3 533 491 524C463.7 515 436.3 509 409 511C381.7 513 354.3 523 327 523C299.7 523 272.3 513 245.2 515C218 517 191 531 163.8 534C136.7 537 109.3 529 82 530C54.7 531 27.3 541 13.7 546L0 551Z" fill="#ffffff"></path></svg>